<svg id="Layer_1" data-name="Layer 1" xmlns="http://www.w3.org/2000/svg" viewBox="0 0 433.45 383.34"><defs><style>.cls-1{fill:#ffe747;}.cls-2{fill:#63aae3;}.cls-3{fill:#f2849b;}</style></defs><path class="cls-1" d="M149,0C149,101.16,87.18,191.67,0,191.67c87.18,0,149,90.51,149,191.67,0-101.16,61.81-191.67,149-191.67C210.81,191.67,149,101.16,149,0Z"/><path class="cls-2" d="M359,0c0,50.58-30.9,95.84-74.5,95.84,43.6,0,74.5,45.25,74.5,95.83,0-50.58,30.91-95.83,74.5-95.83C389.86,95.84,359,50.58,359,0Z"/><path class="cls-3" d="M325.09,191.67c0,50.58-30.91,95.84-74.5,95.84,43.59,0,74.5,45.25,74.5,95.83,0-50.58,30.9-95.83,74.5-95.83C356,287.51,325.09,242.25,325.09,191.67Z"/></svg>